<svg width="128" height="124" viewBox="0 0 128 124" fill="none" xmlns="http://www.w3.org/2000/svg">
<path d="M78.7027 3.68933C81.4914 2.46714 84.7534 3.52752 86.2905 6.15588L89.3347 11.3614C90.4417 13.2545 92.4934 14.3928 94.6855 14.3301L100.877 14.1531C103.952 14.0652 106.595 16.3168 106.997 19.3665L107.73 24.9292C108.023 27.1507 109.529 29.0238 111.636 29.7866L117.282 31.8308C120.246 32.9039 121.874 36.0875 121.009 39.1186L119.589 44.0933C118.956 46.3148 119.653 48.7029 121.384 50.2335L125.552 53.9205C127.97 56.06 128.262 59.7299 126.211 62.2244L123.054 66.0655C121.555 67.8894 121.265 70.4228 122.313 72.5384L124.591 77.1388C126.039 80.0612 124.887 83.6045 121.998 85.1173L117.45 87.4986C115.358 88.5937 114.103 90.8135 114.243 93.1702L114.538 98.1336C114.73 101.357 112.336 104.154 109.122 104.462L103.583 104.994C101.283 105.215 99.3146 106.736 98.5211 108.905L96.744 113.764C95.6613 116.724 92.4724 118.342 89.4441 117.467L83.6756 115.801C81.523 115.179 79.2032 115.809 77.6601 117.433L73.7961 121.502C71.6777 123.732 68.2157 123.999 65.7804 122.12L60.8765 118.336C59.1403 116.996 56.8114 116.711 54.8028 117.591L49.2797 120.012C46.4909 121.234 43.2289 120.173 41.6919 117.545L38.6477 112.34C37.5406 110.446 35.4889 109.308 33.2968 109.371L27.1055 109.548C24.0307 109.636 21.3875 107.384 20.9855 104.335L20.2522 98.7717C19.9593 96.5503 18.4531 94.6772 16.3463 93.9143L10.7006 91.8702C7.73679 90.7971 6.10868 87.6135 6.97355 84.5824L8.39295 79.6077C9.02681 77.3862 8.32895 74.9981 6.59862 73.4674L2.43069 69.7805C0.0120979 67.641 -0.279476 63.9711 1.77094 61.4766L4.92819 57.6354C6.42732 55.8116 6.71754 53.2782 5.66971 51.1626L3.39121 46.5622C1.94381 43.6398 3.09564 40.0964 5.98475 38.5837L10.5328 36.2024C12.6243 35.1073 13.8792 32.8874 13.7391 30.5307L13.4439 25.5673C13.2522 22.3439 15.6459 19.547 18.8602 19.2386L24.3994 18.7071C26.6991 18.4864 28.6677 16.9651 29.4613 14.7955L31.2383 9.93713C32.3211 6.9768 35.5099 5.35907 38.5382 6.2338L44.3067 7.90004C46.4594 8.52184 48.7791 7.89237 50.3222 6.26774L54.1863 2.19946C56.3047 -0.0308884 59.7666 -0.297926 62.202 1.58116L67.1058 5.36486C68.8421 6.70453 71.1709 6.99021 73.1795 6.10992L78.7027 3.68933Z" fill="#7FBC5B"/>
</svg>
